<svg width="474" height="474" viewBox="0 0 474 474" fill="none" xmlns="http://www.w3.org/2000/svg">
<path d="M89 148C132.941 122.539 195.343 86.3805 223.86 69.8563C233.295 64.3897 244.931 64.4637 254.287 70.0635C282.051 86.6811 342.138 122.645 384.5 148C327.735 182.171 145.765 291.829 89 326C89 262.5 89 218.5 89 148Z" fill="#D9D9D9"/>
<path d="M89 326C145.765 291.829 327.735 182.171 384.5 148C384.5 200.693 384.5 275.782 384.5 309.034C384.5 319.583 378.959 329.316 369.907 334.734L239.145 413C239.145 413 121.5 344.832 89 326Z" fill="#D9D9D9"/>
<path d="M89 148C132.941 122.539 195.343 86.3805 223.861 69.8562C233.295 64.3896 244.932 64.4637 254.287 70.0635C282.051 86.6811 342.138 122.645 384.5 148M89 148C147.635 182.171 239.145 235.5 239.145 235.5M89 148C89 200.54 89 275.346 89 308.743C89 319.445 94.7002 329.303 103.959 334.668L239.145 413M384.5 148C327.735 182.171 239.145 235.5 239.145 235.5M384.5 148C384.5 200.693 384.5 275.782 384.5 309.034C384.5 319.584 378.959 329.316 369.907 334.734L239.145 413M239.145 235.5L239.145 413" stroke="#0F0F0F" stroke-width="10"/>
<ellipse cx="239" cy="149.5" rx="22" ry="13.5" fill="#0F0F0F"/>
<ellipse cx="349.069" cy="224.739" rx="22" ry="13.5" transform="rotate(117.224 349.069 224.739)" fill="#0F0F0F"/>
<ellipse cx="317.069" cy="281.739" rx="22" ry="13.5" transform="rotate(117.224 317.069 281.739)" fill="#0F0F0F"/>
<ellipse cx="283.069" cy="339.739" rx="22" ry="13.5" transform="rotate(117.224 283.069 339.739)" fill="#0F0F0F"/>
<ellipse cx="193.424" cy="338.795" rx="22" ry="13.5" transform="rotate(-123.628 193.424 338.795)" fill="#0F0F0F"/>
<ellipse cx="163.424" cy="280.795" rx="22" ry="13.5" transform="rotate(-123.628 163.424 280.795)" fill="#0F0F0F"/>
<ellipse cx="129.424" cy="224.795" rx="22" ry="13.5" transform="rotate(-123.628 129.424 224.795)" fill="#0F0F0F"/>
<ellipse cx="194.424" cy="262.795" rx="22" ry="13.5" transform="rotate(-123.628 194.424 262.795)" fill="#0F0F0F"/>
<ellipse cx="129.424" cy="299.795" rx="22" ry="13.5" transform="rotate(-123.628 129.424 299.795)" fill="#0F0F0F"/>
</svg>
